# xmcd
#
# Track frame offsets:
#	150
#	19278
#	38290
#	58538
#	76733
#	95090
#	115768
#	135340
#	154523
#	171260
#
# Disc length: 2532 seconds
#
# Revision: 0
# Processed by: cddbd v1.5.2PL0 Copyright (c) Steve Scherf et al.
# Submitted via: EZCDAudioConverter 2.0.6.1
#
DISCID=6c09e20a
DTITLE=Olav Stedje - Ei gåve til deg
DYEAR=1990
DGENRE=
TTITLE0=Ei gåve til deg
TTITLE1=Nei ikkje no
TTITLE2=Eitt glas til
TTITLE3=Måneskin
TTITLE4=Jorda går rundt
TTITLE5=Stadig på veg
TTITLE6=Kan hende
TTITLE7=Komma heim
TTITLE8=Veit om ein stad
TTITLE9=Vindaugsbord ved parken
EXTD=
EXTT0=
EXTT1=
EXTT2=
EXTT3=
EXTT4=
EXTT5=
EXTT6=
EXTT7=
EXTT8=
EXTT9=
PLAYORDER=
